 http://img859.imageshack.us/img859/5733/1300379491panda.jpg

Country.......: Germany
Genre.........: Animation
Date release..: 03.02.2011 [World]
Director......: Greg Manwaring
Writers.......: Jorg Tensing
Duration......: 83 min.
More..........: http://www.imdb.com/title/tt1576423
Trailer.......:

Pilot :
Somewhere in the majestic Chinese highlands of our days: The Pandas' survival is severely endangered as the bamboo is becoming scarce, and humans continuously expand into their habitat. And laziness being one of the Pandas' most significant character traits, what the community now requires is someone to rouse them. Manchu, with the help of his friends, stands up to all the trials. The group has nearly reached their destination when suddenly the humans unleash the floods of their newly-built dam, aimed at the Pandas' valley!

Cats :
None

Data Technical :
!!! SAMPLE !!!
Audio.....: Russian
Subtitles.: None
Format                           : AVI
Format/Info                      : Audio Video Interleave
File size                        : 1.37 GiB
Duration                         : 1h 23mn
Overall bit rate                 : 2 355 Kbps
Movie name                       : Panda.2011.D.CAMRip.KINOPARK
Director                         : R.G.KINOPARK
Writing application              : VirtualDubMod 1.5.10.2 (build 2540/release)
Copyright                        : 2011 (c) KINOPARK
Video
ID                               : 0
Format                           : MPEG-4 Visual
Format profile                   : Advanced Simple@L5
Format settings, BVOP            : Yes
Format settings, QPel            : No
Format settings, GMC             : No warppoints
Format settings, Matrix          : Default (H.263)
Codec ID                         : XVID
Codec ID/Hint                    : XviD
Duration                         : 1h 23mn
Bit rate                         : 2 153 Kbps
Width                            : 720 pixels
Height                           : 304 pixels
Display aspect ratio             : 2.35:1
Frame rate                       : 25.000 fps
Color space                      : YUV
Chroma subsampling               : 4:2:0
Bit depth                        : 8 bits
Scan type                        : Progressive
Bits/(Pixel*Frame)               : 0.393
Stream size                      : 1.25 GiB (91%)
Writing library                  : XviD 1.2.0.dev47 (UTC 2006-11-01)
Audio
ID                               : 1
Format                           : AC-3
Format/Info                      : Audio Coding 3
Mode extension                   : CM (complete main)
Codec ID                         : 2000
Duration                         : 1h 23mn
Bit rate mode                    : Constant
Bit rate                         : 192 Kbps
Channel(s)                       : 2 channels
Channel positions                : Front: L R
Sampling rate                    : 48.0 KHz
Bit depth                        : 16 bits
Stream size                      : 114 MiB (8%)
Alignment                        : Split accross interleaves
Interleave, duration             : 40 ms (1.00 video frame)
Interleave, preload duration     : 500 ms

Screen : 
http://img832.imageshack.us/img832/9379/littlebigpanda2011s1.jpg 
http://img199.imageshack.us/img199/7641/littlebigpanda2011s2.jpg 
http://img5.imageshack.us/img5/3046/littlebigpanda2011s3.jpg 
http://img808.imageshack.us/img808/7116/littlebigpanda2011s4.jpg 
http://img854.imageshack.us/img854/4973/littlebigpanda2011s5.jpg